<svg width="36" height="21" viewBox="0 0 36 21" fill="none" xmlns="http://www.w3.org/2000/svg">
<path d="M7.46285 21H0.352852L3.56285 2.97H0.442852L2.69285 -1.43051e-06H11.1829L8.24285 16.56L7.46285 21ZM21.2195 18H24.5195C25.2095 18 25.8395 17.55 26.1395 16.92L26.4695 15.15L28.3595 4.53C28.5095 3.72 27.9695 3.03 27.1295 3.03H23.8295C23.1695 3.03 22.5095 3.48 22.2095 4.11L19.9895 16.5C19.8395 17.31 20.4095 18 21.2195 18ZM15.3395 2.64C15.6095 1.2 17.0195 -1.43051e-06 18.4595 -1.43051e-06H32.1695C33.2195 -1.43051e-06 34.1195 0.449998 34.8095 1.26C35.4995 2.07 35.7395 3.03 35.5595 4.05V4.11L33.0095 18.39C32.7395 19.83 31.3595 21 29.8895 21H16.1795C15.1295 21 14.2295 20.58 13.5395 19.77C12.8795 18.96 12.6095 18 12.7895 16.95L15.3395 2.64Z" fill="#231F20"/>
</svg>
