<svg width="38" height="21" viewBox="0 0 38 21" fill="none" xmlns="http://www.w3.org/2000/svg">
<path d="M8.08199 21H0.971993L4.18199 2.97H1.06199L3.31199 -1.43051e-06H11.802L8.86199 16.56L8.08199 21ZM33.6886 21H13.3786L13.8886 18.06V18L14.9686 12.03L15.2386 10.5L19.1686 8.37H27.3286C28.1686 8.37 28.9786 7.68 29.0986 6.87L29.5186 4.53C29.6686 3.72 29.1286 3.03 28.2886 3.03H16.5586L16.5886 2.97L18.8986 -1.43051e-06H34.0486C35.4886 -1.43051e-06 37.2286 1.2 36.9886 2.64L36.1486 7.23L35.8786 8.82C35.6086 10.26 33.5086 11.34 32.0686 11.34H22.1986L22.0786 12.03L21.0286 18H34.2286L33.6886 21Z" fill="#231F20"/>
</svg>
