<svg width="25" height="21" viewBox="0 0 25 21" fill="none" xmlns="http://www.w3.org/2000/svg">
<path d="M20.4853 21H0.175313L0.685312 18.06V18L1.76531 12.03L2.03531 10.5L5.96531 8.37H14.1253C14.9653 8.37 15.7753 7.68 15.8953 6.87L16.3153 4.53C16.4653 3.72 15.9253 3.03 15.0853 3.03H3.35531L3.38531 2.97L5.69531 -1.43051e-06H20.8453C22.2853 -1.43051e-06 24.0253 1.2 23.7853 2.64L22.9453 7.23L22.6753 8.82C22.4053 10.26 20.3053 11.34 18.8653 11.34H8.99531L8.87531 12.03L7.82531 18H21.0253L20.4853 21Z" fill="#231F20"/>
</svg>
