<svg width="25" height="21" viewBox="0 0 25 21" fill="none" xmlns="http://www.w3.org/2000/svg">
<path d="M5.99816 21H1.22816L0.748164 18.06L0.778164 18H11.4882C12.2982 18 13.8582 17.31 14.0082 16.5L14.6382 12.84C14.7882 12.03 14.2482 11.34 13.4082 11.34H5.51816L5.63816 10.5L5.90816 9L6.02816 8.37H13.9482C14.7882 8.37 15.5682 7.68 15.7182 6.87L16.1382 4.53C16.2882 3.72 15.7182 3.03 14.9082 3.03H3.41816L3.44816 2.97L5.75816 -1.43051e-06H20.9082C22.3482 -1.43051e-06 24.0882 1.2 23.8482 2.64L23.0082 7.23C22.7682 8.67 20.6082 9.84 19.1382 9.84H18.2382L22.1082 12.33C22.1082 12.39 22.0782 12.45 22.0782 12.48L21.0282 18.39C20.7582 19.83 19.3782 21 17.9382 21H5.99816Z" fill="#231F20"/>
</svg>
