<svg width="24" height="22" viewBox="0 0 24 22" fill="none" xmlns="http://www.w3.org/2000/svg">
<path d="M9.37547 7.44H19.3655L22.7255 11.55L21.4955 18.51C21.1655 19.89 19.8155 21.03 18.4055 21.03H3.94547L0.585469 16.92L0.885469 15.12H7.99547L7.75547 16.5C7.60547 17.31 8.17547 18 8.98547 18H13.0355C13.7255 18 14.3555 17.55 14.6555 16.92L15.5555 11.94C15.7055 11.13 15.1355 10.44 14.3255 10.44H5.80547L2.41547 6.54L3.10547 2.64L6.22547 0.0299982C4.75547 0.0299982 3.37547 1.2 3.10547 2.64L6.22547 -1.43051e-06H23.3855L21.1055 3.03H11.5955C10.9355 3.03 10.2755 3.48 9.97547 4.11L9.37547 7.44Z" fill="#231F20"/>
</svg>
