<svg width="24" height="22" viewBox="0 0 24 22" fill="none" xmlns="http://www.w3.org/2000/svg">
<path d="M19.6877 7.44L23.0477 11.55L21.8177 18.51C21.4877 19.89 20.1377 21.03 18.7277 21.03H4.26773L0.907734 16.92L2.13773 9.93L3.42773 2.64C3.69773 1.2 5.07773 -1.43051e-06 6.54773 -1.43051e-06H18.1577H22.8677L20.4977 3.03H11.9177C11.2577 3.03 10.5977 3.48 10.2977 4.11L9.69773 7.44H19.6877ZM15.8777 11.94C16.0277 11.13 15.4577 10.44 14.6477 10.44H10.5977C9.90773 10.44 9.27773 10.89 8.97774 11.52L8.07774 16.5C7.92773 17.31 8.49774 18 9.30773 18H13.3577C14.0477 18 14.6777 17.55 14.9777 16.92L15.8777 11.94Z" fill="#231F20"/>
</svg>
