<svg width="26" height="21" viewBox="0 0 26 21" fill="none" xmlns="http://www.w3.org/2000/svg">
<path d="M18.8056 -1.43051e-06H22.0756C23.5156 -1.43051e-06 25.2556 1.2 24.9856 2.64L24.1756 7.2C23.9356 8.67 21.7756 9.84 20.3056 9.84H19.4056L23.2756 12.33C23.2756 12.39 23.2456 12.45 23.2456 12.48L22.1956 18.39C21.9256 19.83 20.5456 21 19.0756 21H3.89559C2.45559 21 0.715586 19.83 0.955586 18.39L1.97559 12.69C2.24559 11.22 4.40559 10.05 5.84559 10.05H6.77559L2.90559 7.56C2.90559 7.5 2.90559 7.47 2.93559 7.41L3.77559 2.64C4.01559 1.2 5.42559 -1.43051e-06 6.86559 -1.43051e-06H18.8056ZM16.0756 8.37C16.5256 8.37 16.9156 8.04 17.0056 7.59L17.5456 4.53C17.6956 3.72 17.1256 3.03 16.3156 3.03H12.2656C11.6656 3.03 11.0656 3.39 10.7356 3.9C10.6756 4.02 10.6456 4.11 10.6156 4.26L10.0756 7.26C10.0156 7.56 10.0756 7.8 10.2856 8.04C10.4656 8.25 10.7056 8.37 10.9756 8.37H16.0756ZM15.2056 11.34H10.1056C9.65559 11.34 9.29559 11.67 9.20559 12.12L8.42559 16.5C8.27559 17.31 8.81559 18 9.65559 18H13.7056C14.3056 18 14.9056 17.64 15.2356 17.13C15.2956 17.01 15.3256 16.89 15.3556 16.77L16.1356 12.45C16.1956 12.15 16.1056 11.91 15.9256 11.67C15.7456 11.46 15.5056 11.34 15.2056 11.34Z" fill="#231F20"/>
</svg>
