<svg width="24" height="21" viewBox="0 0 24 21" fill="none" xmlns="http://www.w3.org/2000/svg">
<path d="M19.6877 -1.43051e-06L23.0477 4.11L21.8177 11.1L20.5277 18.39C20.2577 19.83 18.8777 21 17.4077 21H1.17773L3.42773 18H6.21773H12.0377C12.6977 18 13.3577 17.55 13.6577 16.92L13.9877 15.12L14.2577 13.59H4.26773L0.907734 9.48L2.13773 2.52C2.46773 1.14 3.81773 -1.43051e-06 5.22773 -1.43051e-06H19.6877ZM15.8777 4.53C16.0277 3.69 15.4577 3.03 14.6477 3.03H10.5977C9.90773 3.03 9.27773 3.48 8.97774 4.11L8.07774 9.06V9.09C7.92773 9.9 8.49774 10.59 9.30773 10.59H13.3577C14.0477 10.59 14.6777 10.14 14.9777 9.51L15.8777 4.53Z" fill="#231F20"/>
</svg>
