<svg width="165" height="89" viewBox="0 0 165 89" fill="none" xmlns="http://www.w3.org/2000/svg">
<path d="M38.7236 22H19.9376L20.4646 18.962V18.9L21.5806 12.731L21.8596 11.181L22.1386 9.6L23.2236 3.431L23.2546 3.369L22.3556 0.330998H42.5986L42.0406 3.431H31.8106C31.1286 3.431 30.4776 3.989 30.3536 4.671L30.1366 6.004L29.6096 8.949H37.9486L37.3906 12.018H29.0516L28.9276 12.731L28.0596 17.66C27.9356 18.342 28.3696 18.9 29.0516 18.9H40.6146L40.7386 18.962L38.7236 22ZM50.1835 22H44.2315L44.7585 18.962L45.4715 15.056L46.8355 7.337L45.9675 4.268H66.0555C67.5745 4.268 68.5665 5.508 68.2875 6.996L67.3575 12.235L63.8545 15.211L64.6605 17.412L66.4275 22H58.6465L56.6625 16.482H52.5395L51.5785 22H50.1835ZM53.0975 13.351H58.2745C59.1115 13.351 59.9485 12.669 60.1035 11.801L60.5995 8.949C60.7545 8.112 60.1965 7.399 59.3285 7.399H54.1825L53.0975 13.351ZM75.9304 22H69.9784L70.5054 18.962L71.2184 15.056L72.5824 7.337L71.7144 4.268H91.8024C93.3214 4.268 94.3134 5.508 94.0344 6.996L93.1044 12.235L89.6014 15.211L90.4074 17.412L92.1744 22H84.3934L82.4094 16.482H78.2864L77.3254 22H75.9304ZM78.8444 13.351H84.0214C84.8584 13.351 85.6954 12.669 85.8504 11.801L86.3464 8.949C86.5014 8.112 85.9434 7.399 85.0754 7.399H79.9294L78.8444 13.351ZM104.405 18.9H108.59C109.303 18.9 109.954 18.435 110.264 17.784L111.845 8.949C112 8.112 111.442 7.399 110.574 7.399H106.389C105.707 7.399 105.025 7.864 104.715 8.515L103.134 17.35C102.979 18.187 103.568 18.9 104.405 18.9ZM111.008 4.268H115.782L119.285 8.515L117.363 19.303C117.084 20.791 115.658 22 114.139 22C109.861 22 103.506 22 99.1974 22L95.7254 17.784L97.6164 6.996C97.8954 5.508 99.3524 4.268 100.84 4.268H111.008ZM126.879 22H120.927L121.454 18.962L122.167 15.056L123.531 7.337L122.663 4.268H142.751C144.27 4.268 145.262 5.508 144.983 6.996L144.053 12.235L140.55 15.211L141.356 17.412L143.123 22H135.342L133.358 16.482H129.235L128.274 22H126.879ZM129.793 13.351H134.97C135.807 13.351 136.644 12.669 136.799 11.801L137.295 8.949C137.45 8.112 136.892 7.399 136.024 7.399H130.878L129.793 13.351ZM61.6944 33.3H69.0414L68.2664 37.547L66.9954 44.77L65.1664 55H57.8194L58.5634 50.784L58.6254 50.474L58.9044 48.924H48.5814L45.1094 44.677L46.6594 35.904L47.1244 33.3H54.4714L52.5184 44.243C52.3634 45.111 52.9524 45.793 53.7894 45.793H59.4624L60.8574 37.981L61.6944 33.3ZM79.4167 51.9H82.8267C83.5397 51.9 84.1907 51.435 84.5007 50.784L84.8417 48.955L86.7947 37.981C86.9497 37.144 86.3917 36.431 85.5237 36.431H82.1137C81.4317 36.431 80.7497 36.896 80.4397 37.547L78.1457 50.35C77.9907 51.187 78.5797 51.9 79.4167 51.9ZM73.3407 36.028C73.6197 34.54 75.0767 33.3 76.5647 33.3H90.7317C91.8167 33.3 92.7467 33.765 93.4597 34.602C94.1727 35.439 94.4207 36.431 94.2347 37.485V37.547L91.5997 52.303C91.3207 53.791 89.8947 55 88.3757 55H74.2087C73.1237 55 72.1937 54.566 71.4807 53.729C70.7987 52.892 70.5197 51.9 70.7057 50.815L73.3407 36.028ZM112.522 33.3H119.869L119.094 37.547L117.823 44.77L115.994 55H108.647L109.391 50.784L109.453 50.474L109.732 48.924H99.4093L95.9373 44.677L97.4873 35.904L97.9523 33.3H105.299L103.346 44.243C103.191 45.111 103.78 45.793 104.617 45.793H110.29L111.685 37.981L112.522 33.3ZM4.11644 88H0.324436L0.596436 86.432L0.964436 84.416L1.66844 80.432L1.22044 78.848H11.5884C12.3724 78.848 12.8844 79.488 12.7404 80.256L12.2604 82.96L9.68444 85.152H4.61244L4.11644 88ZM4.90044 83.536H7.57244C8.00444 83.536 8.43644 83.184 8.51644 82.736L8.77244 81.264C8.85244 80.832 8.56444 80.464 8.11644 80.464H5.46044L4.90044 83.536ZM13.6487 86.544L14.0807 88H10.8007L17.2487 79.728L16.9767 78.848H21.1847L23.9527 88H19.7447L19.0727 85.76H14.2567L13.6487 86.544ZM17.7287 81.296L15.4727 84.192H18.5927L17.8887 81.84L17.7287 81.296ZM36.3929 82.624L36.0729 84.432L35.4329 88H26.5689L24.7769 85.824L25.7529 80.256C25.8969 79.488 26.6489 78.848 27.4169 78.848C30.1529 78.848 34.1689 78.848 36.9049 78.848L36.6169 80.464H30.3129C29.8809 80.464 29.4489 80.832 29.3689 81.264L28.6009 85.6C28.5209 86.032 28.8249 86.4 29.2569 86.4H31.8969L32.2969 84.192H30.8409L31.8809 82.624H36.3929ZM47.4492 88H37.7532L39.0972 80.464L38.6492 78.848H49.0812L48.7932 80.464H43.5132C43.1612 80.464 42.8252 80.752 42.7772 81.104L42.5052 82.624H46.7932L46.5212 84.208H42.2172L41.9452 85.76C41.8812 86.112 42.1052 86.4 42.4572 86.4H48.4252L48.4892 86.432L47.4492 88ZM61.0048 88L57.6928 83.04L56.8288 88H55.2448L55.5488 86.432L56.4768 81.2L54.9088 78.848H59.9328L64.9568 86.336L65.3568 84.048L66.2848 78.848H67.8368L66.4608 86.656L66.2208 88H65.7888H61.0048ZM73.1619 86.4H75.3219C75.6899 86.4 76.0259 86.16 76.1859 85.824L77.0019 81.264C77.0819 80.832 76.7939 80.464 76.3459 80.464H74.1859C73.8339 80.464 73.4819 80.704 73.3219 81.04L72.5059 85.6C72.4259 86.032 72.7299 86.4 73.1619 86.4ZM76.5699 78.848H79.0339L80.8419 81.04L79.8499 86.608C79.7059 87.376 78.9699 88 78.1859 88C75.9779 88 72.6979 88 70.4739 88L68.6819 85.824L69.6579 80.256C69.8019 79.488 70.5539 78.848 71.3219 78.848H76.5699ZM88.2014 88H84.4094L85.7534 80.464H81.6894L81.9614 78.848H93.9294L93.6414 80.464H89.5454L88.2014 88ZM103.543 88H99.7513L101.095 80.464L100.647 78.848C104.119 78.848 107.607 78.848 111.079 78.848L110.791 80.464H105.511C105.159 80.464 104.823 80.752 104.775 81.104L104.503 82.624H108.791L108.519 84.208H104.215L103.543 88ZM116.411 86.4H118.571C118.939 86.4 119.275 86.16 119.435 85.824L120.251 81.264C120.331 80.832 120.043 80.464 119.595 80.464H117.435C117.083 80.464 116.731 80.704 116.571 81.04L115.755 85.6C115.675 86.032 115.979 86.4 116.411 86.4ZM119.819 78.848H122.283L124.091 81.04L123.099 86.608C122.955 87.376 122.219 88 121.435 88C119.227 88 115.947 88 113.723 88L111.931 85.824L112.907 80.256C113.051 79.488 113.803 78.848 114.571 78.848H119.819ZM129.962 78.848C129.45 81.792 129.29 82.672 128.762 85.6C128.682 86.032 128.986 86.4 129.418 86.4H131.674C132.042 86.4 132.378 86.16 132.538 85.824C133.082 82.816 133.258 81.856 133.786 78.848H137.578L136.202 86.608C136.058 87.376 135.322 88 134.538 88C132.33 88 128.954 88 126.73 88L124.938 85.824L125.898 80.432L125.434 78.848H129.962ZM144.526 88L141.214 83.04L140.35 88H138.766L139.07 86.432L139.998 81.2L138.43 78.848H143.454L148.478 86.336L148.878 84.048L149.806 78.848H151.358L149.982 86.656L149.742 88H149.31H144.526ZM155.275 88.144H152.203L153.563 80.432L153.115 78.848H163.499C164.267 78.848 164.795 79.488 164.651 80.256L163.643 85.952L161.051 88.144H155.275ZM160.091 84.576L160.683 81.264C160.763 80.832 160.459 80.464 160.027 80.464H157.355L156.283 86.528H158.539C158.971 86.528 159.803 86.176 159.883 85.728L160.091 84.576Z" fill="#F28E32"/>
</svg>
