<svg width="16" height="16" viewBox="0 0 16 16" fill="none" xmlns="http://www.w3.org/2000/svg">
<g clip-path="url(#clip0_86_4)">
<circle cx="8" cy="8" r="8" fill="#231F20"/>
<path d="M2.61022 9.3H5.69722C5.94922 9.3 6.07522 8.95 5.86522 8.859C5.50822 8.698 5.17222 8.544 4.83622 8.383C4.39522 8.18 4.04522 7.977 3.58322 7.774C3.10022 7.564 2.69422 7.088 2.79922 6.507L2.87622 6.059L4.00322 5.1H7.52422L7.39822 5.807H4.47922C4.22722 5.807 4.10122 6.157 4.31122 6.248L5.03222 6.577L6.59322 7.333C7.07622 7.543 7.54522 8.019 7.44022 8.6L7.36322 9.048L6.22922 10H2.49122L2.61022 9.3ZM9.23889 10V10.007H7.89489L8.01389 9.314L8.64389 5.793L8.44089 5.1H12.9839C13.3199 5.1 13.5509 5.38 13.4879 5.716L13.1869 7.431L12.0529 8.39H9.84089L9.55389 10H9.23889ZM9.96689 7.683H11.1289C11.3249 7.683 11.5069 7.529 11.5419 7.333L11.7519 6.157C11.7869 5.968 11.6539 5.807 11.4649 5.807H10.2959L9.96689 7.683Z" fill="#F28E32"/>
</g>
<defs>
<clipPath id="clip0_86_4">
<rect width="16" height="16" fill="white"/>
</clipPath>
</defs>
</svg>
